<?xml version="1.0" standalone="no"?>
<!DOCTYPE svg PUBLIC "-//W3C//DTD SVG 1.1//EN" "http://www.w3.org/Graphics/SVG/1.1/DTD/svg11.dtd">
<svg xmlns="http://www.w3.org/2000/svg">
<metadata>Generated by Fontastic.me</metadata>
<defs>
<font id="elderecho" horiz-adv-x="512">
<font-face font-family="elderecho" units-per-em="512" ascent="480" descent="-32"/>
<missing-glyph horiz-adv-x="512" />

<glyph glyph-name="autor" unicode="&#97;" d="M256 512c-141 0-256-115-256-256 0-141 115-256 256-256 141 0 256 115 256 256 0 141-115 256-256 256z m92-208l-145-145c-1-1-4-3-5-3l-39-2c-5 0-10 4-10 10l3 38c0 3 2 4 3 6l145 145c4 4 10 4 13 0l35-36c5-3 5-8 0-13z m20 20c-4-4-10-4-12 0l-37 37c-5 5-5 10 0 13 4 3 10 4 12 0l37-37c5-4 5-10 0-13z m-197-126l-2-24 24 1 137 136-23 23z"/>
<glyph glyph-name="buscador" unicode="&#98;" d="M512 38l-144 132c29 35 45 80 45 128 0 112-93 204-205 204-112 0-198-89-198-201 0-112 89-205 201-205 48 0 90 16 125 42l144-135z m-454 263c0 86 70 157 156 157 87 0 157-71 157-157 0-87-70-157-157-157-86 0-156 70-156 157z"/>
<glyph glyph-name="calendario-mediano" unicode="&#100;" d="M481 475l-92 0 0 17c0 8-6 16-16 16-11 0-15-8-15-16l0-17-194 0 0 17c0 8-6 16-17 16-10 0-14-8-14-16l0-17-102 0c-8 0-17-6-17-16l0-439c0-8 6-16 17-16l450 0c8 0 17 6 17 16l0 441c0 8-9 14-17 14z m-348-31l0-47c0-8 6-14 17-14 10 0 14 6 14 14l0 47 194 0 0-47c0-8 7-16 17-16 10 0 16 6 16 16l0 47 78 0 0-96-422 0 0 96z m-86-409l0 282 420 0 0-282z"/>
<glyph glyph-name="candado" unicode="&#101;" d="M105 309c-4 0-7-4-7-8l0-241c0-4 3-7 7-7l302 0c4 0 7 3 7 7l0 241c0 4-3 8-7 8z m0 45l302 0c29 0 52-24 52-53l0-241c0-29-23-52-52-52l-302 0c-29 0-52 23-52 52l0 241c0 29 23 53 52 53z m83-11l0 67c0 27 22 49 50 49l36 0c28 0 50-22 50-49l0-76 45 0 0 76c0 52-43 94-95 94l-36 0c-52 0-95-42-95-94l0-67z"/>
<glyph glyph-name="edit" unicode="&#102;" d="M33 9c-4 0-9 2-11 4-4 5-4 9-4 14l6 87c0 4 3 6 5 11l325 325c2 2 7 4 11 4 5 0 9-2 11-4l80-80c7-7 7-18 0-25l-327-325c-2-2-7-4-11-4z m23 96l-5-60 60 4 310 309-56 56z m429 278c-4 0-9 2-11 4l-82 83c-7 6-7 18 0 24 6 7 18 7 24 0l83-82c6-7 6-18 0-25-5-2-9-4-14-4z"/>
<glyph glyph-name="enviar" unicode="&#103;" d="M471 508l-456-211c-13-7-13-24 0-30l171-77 83-167c6-12 23-10 30 0l196 463c4 15-11 28-24 22z m-189-440l-67 130 90 94c6 7 6 17 0 24-6 6-17 6-23 0l-90-94-132 62 388 177z"/>
<glyph glyph-name="facebook" unicode="&#104;" d="M0 512l0-512 512 0 0 512z m323-198l-4-43-44 0 0-152-57 0 0 151-30 0 0 42 30 0 0 31c0 14 0 32 11 44 8 14 22 23 46 23 37 0 54-6 54-6l-6-44c0 0-12 4-24 4-12 0-23-4-23-16l0-34z"/>
<glyph glyph-name="facebook-2" unicode="&#105;" d="M261 507c-138 0-249-113-249-253 0-139 112-252 249-252 138 0 248 113 248 252 1 140-110 253-248 253z m0-481c-124 0-225 103-225 230 0 127 101 230 225 230 124 0 225-103 225-230 1-127-100-230-225-230z m34 304c9 0 20-3 20-3l6 38c0 0-12 4-43 4-19 0-30-7-39-18-8-11-8-27-8-38l0-24-25 0 0-36 25 0 0-126 47 0 0 126 35 0 4 36-39 0 0 28c-2 10 6 13 17 13z"/>
<glyph glyph-name="flecha-leer-mas" unicode="&#108;" d="M326 438l-22-22 141-141-426 0 0-32 419 0-134-131 22-22 176 172z"/>
<glyph glyph-name="norma-criterio" unicode="&#109;" d="M486 33c-2 34-28 59-61 59l-149 0c-33 0-58-25-61-59l-18 0 0-33 310 0 0 31-21 0z m-238 0c3 16 13 26 28 26l149 0c15 0 28-13 28-26z m44 139l-18-18 23-23 125 125 8 8 31 30-23 23-18-17-167 166 18 18-23 23-164-164 24-23 17 18 49-49-148-123c-26-25-26-69 0-94 12-13 28-21 46-21 18 0 36 8 46 21l123 151z m-146 189l84 84 167-166-85-84z m-49-269c-13-13-36-13-48 0-13 13-13 36 0 49l151 123 23-23z"/>
<glyph glyph-name="subir" unicode="&#110;" d="M256 512c-142 0-256-114-256-256 0-142 114-256 256-256 142 0 256 114 256 256 0 142-114 256-256 256z m62-287l-57 59-60-59-14 14 74 73 71-73z"/>
<glyph glyph-name="play" unicode="&#113;" d="M256 509c-140 0-253-113-253-253 0-140 113-254 253-254 140 0 254 114 254 254 0 140-114 253-254 253z m0-492c-132 0-238 107-238 239 0 132 106 238 238 238 132 0 239-106 239-238 0-132-107-239-239-239z m-27 181l92 60-92 59z"/>
<glyph glyph-name="pausa" unicode="&#114;" d="M256 506c-138 0-250-112-250-250 0-138 112-252 252-252 140 0 252 112 252 252 0 140-116 250-254 250z m0-474c-123 0-222 101-222 224 0 123 99 222 222 222 123 0 224-99 224-222 0-123-101-224-224-224z m28 294l29 0 0-144-29 0z m-94 0l28 0 0-144-28 0z"/>
<glyph glyph-name="newsletter" unicode="&#115;" d="M486 428l-460 0c-11 0-18-8-18-18l0-308c0-10 7-20 20-20l461 0c10 0 20 8 20 20l0 308c-2 10-12 18-23 18z m-18-308l-422 0 0 269 422 0z m-220 77c8-5 16-5 21 0l169 115c7 5 10 18 5 26-5 8-18 10-26 5l-156-107-159 107c-7 5-20 3-25-5-5-8-3-21 5-26z"/>
<glyph glyph-name="menu" unicode="&#117;" d="M11 445l493 0 0-54-493 0z m0-162l493 0 0-54-493 0z m0-162l493 0 0-54-493 0z"/>
<glyph glyph-name="linkedin-2" unicode="&#120;" d="M250 507c-138 0-250-113-250-251 0-140 112-253 248-253 138 0 248 113 248 253 2 138-110 251-246 251z m0-482c-124 0-225 102-225 229-2 128 99 230 225 230 124 0 225-102 225-230 0-125-101-229-225-229z m-84 344c-17 0-28-11-28-26 0-14 11-26 28-26 17 0 28 10 28 26 0 14-11 26-28 26z m-22-71l47 0 0-151-47 0z m173 1c-27 0-44-14-47-24l0 23-53 0c0-13 0-151 0-151l51 0 0 81c0 5 0 9 2 12 3 10 11 19 25 19 18 0 26-14 26-34l0-78 53 0 0 84c0 47-25 68-57 68z"/>
<glyph glyph-name="linkedin" unicode="&#121;" d="M5 504l0-496 495 0 0 496z m178-357l-54 0 0 175 54 0z m-29 197c-20 0-33 13-33 29 0 17 13 30 33 30 19 0 33-13 33-30 1-16-12-29-33-29z m247-197l-62 0 0 91c0 23-10 39-32 39-16 0-25-11-30-21-1-3-1-8-1-15l0-94-61 0c0 0 0 160 0 175l61 0 0-28c3 12 23 30 54 30 40 0 70-25 70-80l0-97z"/>
<glyph glyph-name="twitter" unicode="&#122;" d="M0 512l0-512 512 0 0 512z m381-212c0-1 0-5 0-8 0-79-60-169-169-169-35 0-65 10-93 27 6 0 11 0 14 0 27 0 53 10 74 26-26 0-48 17-57 41 4 0 7-2 12-2 5 0 10 0 15 2-27 5-47 29-47 58 8-5 17-7 27-7-15 10-27 29-27 49 0 11 3 21 8 31 29-36 74-60 123-63-2 5-2 9-2 14 0 32 28 59 60 59 17 0 33-6 45-18 13 3 25 6 37 13-5-13-14-25-26-32 12 2 24 5 35 10-7-12-17-24-29-31z"/>
<glyph glyph-name="twitter-2" unicode="&#65;" d="M253 507c-138 0-248-113-248-253 0-139 111-252 248-252 138 0 248 113 248 252 0 140-112 253-248 253z m0-481c-124 0-225 103-225 230 0 127 101 230 225 230 124 0 225-103 225-230 0-127-101-230-225-230z m112 312c-10-6-21-9-31-12-10 9-22 15-36 15-26 0-48-21-48-49 0-5 0-8 1-11-40 1-76 22-101 51-4-8-6-15-6-25 0-17 10-32 22-42-8 0-16 3-22 7 0-24 17-44 39-49-5-1-8-1-12-1-3 0-7 0-10 1 7-20 25-34 45-34-17-14-37-21-60-21-5 0-8 0-11 0 22-14 47-22 74-22 90 0 139 76 139 141 0 2 0 5 0 6 9 8 17 16 24 27-9-5-18-7-28-8 10 5 18 14 21 26z"/>
<glyph glyph-name="usuario" unicode="&#66;" d="M502 77c-32 57-89 102-153 125 35 25 61 70 61 118 0 83-68 154-154 154-86 0-150-71-150-154 0-48 22-93 57-118-64-23-121-64-153-125-7-13-4-26 9-32 13-7 26-3 32 9 39 71 119 112 205 112 83 0 163-44 202-115 6-13 22-16 32-9 12 6 19 22 12 35z m-348 243c0 58 48 106 105 106 58 0 106-48 106-106 0-58-51-106-109-106-58 0-102 48-102 106z"/>
<glyph glyph-name="youtube" unicode="&#67;" d="M220 210l89 53-89 51z m-220 302l0-512 512 0 0 512z m393-299c0-47-48-47-48-47l-178 0c-48 1-48 47-48 47l0 98c0 47 48 47 48 47l179 0c47 0 47-47 47-47z"/>
<glyph glyph-name="closed-sq" unicode="&#118;" d="M416 512l96 0 0-512-512 0 0 96 416 0z"/>
<glyph glyph-name="open-sq" unicode="&#119;" d="M96 0l-96 0 0 512 512 0 0-96-416 0z"/>
<glyph glyph-name="label-end" unicode="&#68;" d="M190 0l-30 0 0 21 15 0 147 470-162 0 0 21 192 0z"/>
<glyph glyph-name="label-end-fill" unicode="&#69;" d="M160 491l0 21 192 0-162-512-30 0 0 21"/>
<glyph glyph-name="label-start" unicode="&#70;" d="M322 0l30 0 0 21-15 0-147 470 162 0 0 21-192 0z"/>
<glyph glyph-name="label-start-fill" unicode="&#71;" d="M352 491l0 21-192 0 162-512 30 0 0 21"/>
<glyph glyph-name="twitter-bird" unicode="&#73;" d="M162 48c193 0 298 160 298 298 0 5 0 9 0 14 20 15 38 33 52 54-19-8-39-14-60-16 22 13 38 33 46 58-20-12-43-21-67-26-19 21-46 33-76 33-58 0-105-47-105-105 0-8 1-16 3-23-88 4-165 46-217 109-9-15-14-33-14-53 0-36 18-68 47-87-18 1-34 6-48 13 0 0 0-1 0-1 0-51 36-93 84-103-8-2-18-4-27-4-7 0-14 1-20 2 13-42 52-72 98-73-36-28-81-45-130-45-9 0-17 1-25 2 46-30 101-47 161-47"/>
<glyph glyph-name="poi" unicode="&#74;" d="M259 389c-42 0-75-34-75-76 0-42 33-75 75-75 42-3 78 33 78 75 0 42-36 76-78 76z m0-112c-18 0-36 15-36 36 0 21 15 36 36 36 21 0 36-15 36-36 0-21-15-36-36-36z m0 226c-105 0-190-84-190-190 0-39 12-75 33-114 28-48 55-82 142-181 9-9 21-9 30 0 0 0 69 81 87 102 31 37 49 67 64 94 18 33 24 66 24 99 0 106-85 190-190 190z m130-271c-13-24-31-51-58-87-12-15-51-61-72-85-75 82-99 115-120 157-19 33-28 63-28 96 0 85 67 151 151 151 84 0 151-66 151-151-3-27-9-54-24-81z"/>
<glyph glyph-name="reloj" unicode="&#75;" d="M256 490c-128 0-234-103-234-234 0-131 106-234 234-234 131 0 237 106 237 234 0 128-106 234-237 234z m0-426c-106 0-192 86-192 192 0 106 86 192 192 192 106 0 192-86 192-192 0-106-83-192-192-192z m10 301l-42 0 0-99 80-84 29 32-67 68z"/>
<glyph glyph-name="star-icon" unicode="&#111;" d="M249 377l33-62 11-22 25-4 70-11-48-51-15-19 4-25 11-70-66 30-25 11-22-11-62-30 11 70 3 25-22 19-47 51 69 11 26 4 11 22 33 62m0 117l-81-150-168-33 117-124-22-169 154 73 153-73-22 169 121 124-168 33z"/>
<glyph glyph-name="play-icon" unicode="&#112;" d="M314 256l-106-61 0 122z m130 171c10 0 17-7 17-17l0-308c0-10-7-17-17-17l-376 0c-10 0-17 7-17 17l0 308c0 10 7 17 17 17l376 0m0 51l-376 0c-37 0-68-31-68-68l0-308c0-37 31-68 68-68l376 0c37 0 68 31 68 68l0 308c0 37-31 68-68 68z"/>
<glyph glyph-name="avion" unicode="&#76;" d="M294 7l211 505-505-209 189-106z m155 451l-158-383-73 130 92 92-20 20-93-92-130 73z"/>
<glyph glyph-name="mundo-juridico" unicode="&#116;" d="M415 504l-369 0 0-426 369 0z m-40-385l-289 0 0 344 289 0z m-254 312l216 0 0-40-216 0z m0-81l216 0 0-40-216 0z m0-81l113 0 0-40-113 0z m318 159l0-374-326 0 0-41 367 0 0 415z"/>
<glyph glyph-name="calendario" unicode="&#99;" d="M73 55l368 0 0 373-368 0z m-20 414l409 0c12 0 21-9 21-21l0-414c0-11-9-21-21-21l-409 0c-12 0-21 10-21 21l0 414c0 12 9 21 21 21z m-7-182l423 0 0 42-423 0z m285 191l0-89c0-11 10-21 21-21 11 0 21 10 21 21l0 89c0 11-10 21-21 21-11 0-21-10-21-21z m-189 0l0-89c0-11 9-21 20-21 12 0 21 10 21 21l0 89c0 11-9 21-21 21-11 0-20-10-20-21z"/>
<glyph glyph-name="flecha-grande" unicode="&#106;" d="M386 497l-8 9-249-250 249-250 8 9-243 241z"/>
<glyph glyph-name="flecha-grande-2" unicode="&#107;" d="M136 506l-7-9 242-241-242-241 7-9 250 250z"/>
<glyph glyph-name="ed-flecha-bold" unicode="&#80;" d="M406 475l-28 31-249-250 249-250 6 6 1 1 0 0 23 22-223 221z"/>
<glyph glyph-name="logo-led" unicode="&#84;" d="M309 508l-309 0 0-455 53 0 0 402 256 0z m153-53l0-402-256 0 0-49 306 0 0 451z m-309-142l206 0 0 39-206 0z m0-149l206 0 0 39-206 0z"/>
<glyph glyph-name="close" unicode="&#79;" d="M512 461l-48 48-208-205-205 205-48-48 205-205-205-208 48-48 205 205 208-205 48 48-205 208z"/>
<glyph glyph-name="checkmark" unicode="&#86;" d="M209 79l-209 209 60 60 149-150 239 239 60-59z"/>
<glyph glyph-name="funnel" unicode="&#78;" d="M229-3l-48 47 0 209-161 259 475 0-160-259 0-151z m-14 61l14-14 71 72 0 147 133 215-351 0 133-215z"/>
<glyph glyph-name="ico-modalidad" unicode="&#72;" d="M255 512c-83 0-152-69-152-153l0-209c0-84 69-153 153-153 84 0 153 69 153 153l0 209c0 84-69 153-154 153z m118-361c0-65-53-118-118-118-64 0-117 53-117 118l0 208c1 64 53 117 117 117 65 0 118-53 118-117z m-118 282c-9 0-17-9-17-18l0-108c0-10 8-18 17-18 10 0 18 8 18 18l0 108c0 9-7 18-18 18z"/>
<glyph glyph-name="logo-3" unicode="&#83;" d="M3 152l0 28 4 0 0-28z m16 20l0-20-4 0 0 28 3 0 16-20 0 20 4 0 0-28-4 0z m46 4l-9 0 0-24-4 0 0 24-9 0 0 4 22 0z m24-20l0-4-19 0 0 28 19 0 0-4-15 0 0-8 13 0 0-3-13 0 0-9z m6-4l0 28 4 0 0-24 15 0 0-4z m23 0l0 28 5 0 0-28z m31 4c-2-3-5-4-8-4-2 0-3 0-5 1-1 1-3 2-4 3-1 2-2 3-3 5 0 2-1 3-1 5 0 2 1 4 1 5 1 2 2 4 3 5 1 1 3 2 4 3 2 1 3 1 5 1 3 0 5-1 7-2 1-1 3-2 4-4l-4-2c0 1-1 2-3 3-1 1-2 1-4 1-1 0-2 0-3-1-1 0-2-1-3-2-1-1-1-2-2-3 0-1 0-3 0-4 0-1 0-3 0-4 1-1 1-2 2-3 1-1 2-2 3-2 1-1 2-1 3-1 3 0 6 1 8 4l0 3-6 0 0 3 10 0 0-14-4 0z m28 0l0-4-18 0 0 28 18 0 0-4-14 0 0-8 12 0 0-3-12 0 0-9z m10 16l0-20-4 0 0 28 3 0 16-20 0 20 4 0 0-28-3 0z m25-6c0 2 0 4 1 5 0 2 1 3 2 5 2 1 3 2 5 3 1 1 3 1 5 1 3 0 5-1 6-2 2-1 3-2 4-4l-3-2c0 0-1 1-1 2-1 0-2 1-2 1-1 0-1 1-2 1-1 0-1 0-2 0-1 0-3 0-4-1-1 0-2-1-2-2-1-1-2-2-2-3 0-2-1-3-1-4 0-1 1-3 1-4 0-1 1-2 2-3 1-1 2-2 3-2 1-1 2-1 3-1 1 0 1 0 2 0 1 0 1 1 2 1 1 0 1 1 2 1 0 1 1 2 1 2l4-2c-1-1-1-1-2-2-1-1-2-2-3-2-1-1-2-1-3-2-1 0-2 0-3 0-2 0-4 0-5 1-2 1-3 2-4 4-2 1-2 2-3 4-1 2-1 3-1 5z m29-14l0 28 4 0 0-28z m9 0l11 28 3 0 11-28-4 0-3 8-11 0-3-8z m12 23l-4-12 9 0z m24-18c1 0 1 0 2-1 1 0 2 0 3 0 1 0 2 0 3 0 1 1 1 1 2 2 0 1 0 2 0 3 0 2 1 3 1 5l0 14 4 0 0-14c0-2 0-4 0-6-1-2-1-3-2-4 0-2-1-2-3-3-1-1-3-1-5-1-2 0-4 0-6 2z m33-1c2 0 3 0 4 1 1 0 1 1 2 2 1 1 1 2 1 3 1 1 1 3 1 4l0 14 4 0 0-14c0-2 0-4-1-5 0-2-1-4-2-5-1-1-2-2-3-3-2-1-4-1-6-1-2 0-4 0-5 1-2 1-3 2-4 3-1 2-2 3-2 5 0 1-1 3-1 5l0 14 5 0 0-14c0-1 0-3 0-4 0-1 1-2 1-3 1-1 2-2 3-2 1-1 2-1 3-1z m19-4l0 28 12 0c1 0 2-1 3-1 1-1 2-1 3-2 1-1 1-2 2-3 0-1 0-2 0-3 0-1 0-2 0-3 0-1-1-1-1-2-1-1-1-2-2-2-1-1-1-1-2-1l6-11-5 0-6 10-6 0 0-10z m4 14l8 0c0 0 1 0 1 0 1 0 1 1 2 1 0 1 0 1 0 2 1 0 1 1 1 2 0 1 0 1-1 2 0 0 0 1-1 1 0 1 0 1-1 2 0 0-1 0-2 0l-7 0z m23-14l0 28 4 0 0-28z m3 31l-3 0 2 5 4 0z m8-31l0 28 10 0c2 0 4-1 6-1 1-1 3-2 4-3 1-2 2-3 2-5 1-1 1-3 1-5 0-2 0-4-1-6 0-1-1-3-2-4-2-1-3-2-5-3-1 0-3-1-5-1z m19 14c0 2 0 3-1 4 0 1-1 2-2 3 0 1-1 2-2 2-1 1-3 1-4 1l-6 0 0-20 6 0c1 0 3 0 4 1 1 0 2 1 3 2 0 1 1 2 1 3 1 1 1 3 1 4z m10-14l0 28 4 0 0-28z m10 14c0 2 0 4 1 5 0 2 1 3 2 5 1 1 3 2 4 3 2 1 4 1 6 1 2 0 4-1 6-2 2-1 3-2 4-4l-3-2c-1 0-1 1-2 2 0 0-1 1-1 1-1 0-2 1-2 1-1 0-2 0-2 0-2 0-3 0-4-1-1 0-2-1-3-2 0-1-1-2-1-3-1-2-1-3-1-4 0-1 0-3 1-4 0-1 1-2 2-3 0-1 1-2 2-2 1-1 3-1 4-1 0 0 1 0 2 0 1 0 1 1 2 1 0 0 1 1 2 1 0 1 1 2 1 2l4-2c-1-1-2-1-2-2-1-1-2-2-3-2-1-1-2-1-3-2-1 0-2 0-3 0-2 0-4 0-6 1-1 1-2 2-4 4-1 1-2 2-2 4-1 2-1 3-1 5z m26-14l11 28 3 0 11-28-4 0-3 8-11 0-3-8z m13 23l-5-12 9 0z m-367 188l-87 0 0-128 15 0 0 113 72 0z m43-15l0-113-72 0 0-14 86 0 0 127z m-87-40l58 0 0 11-58 0z m0-42l58 0 0 11-58 0z m165 34l0-6-24 0 0 37 6 0 0-31z m12 26l0-10 15 0 0-6-15 0 0-10 18 0 0-6-25 0 0 37 25 0 0-5z m34 0l0-10 14 0 0-6-14 0 0-16-6 0 0 37 24 0 0-5z m30 0l0-10 15 0 0-6-15 0 0-10 18 0 0-6-25 0 0 37 25 0 0-5z m42 5c7 0 11-4 11-10 0-2-2-5-3-6 3-1 6-5 6-9 0-7-5-12-12-12l-16 0 0 37z m-8-14l8 0c3 0 5 2 5 4 0 2-2 5-5 5l-8 0z m0-17l10 0c4 0 6 3 6 6 0 3-3 6-6 6l-10 0z m23 31l7 0 11-24 11 24 7 0-18-38z m57 0c7 0 12-4 12-10 0-6-3-9-7-11l8-16-7 0-8 16-7 0 0-16-6 0 0 37z m-9-15l9 0c4 0 6 1 6 5 0 3-2 5-6 5l-9 0z m35 10l0-10 15 0 0-6-15 0 0-10 18 0 0-6-24 0 0 37 24 0 0-5z m-234-57l0-10 15 0 0-6-15 0 0-10 19 0 0-6-25 0 0 37 25 0 0-5z m50-26l0-6-24 0 0 38 6 0 0-32z m33 32c10 0 19-9 19-19 0-10-8-18-19-19l-14 0 0 38z m-8-32l8 0c7 0 13 6 13 13 0 7-6 13-13 13l-8 0z m40 26l0-10 15 0 0-6-15 0 0-10 18 0 0-6-25 0 0 37 25 0 0-5z m40 6c8 0 13-5 13-11 0-6-4-9-7-11l8-16-7 0-8 16-7 0 0-16-7 0 0 38z m-8-16l8 0c5 0 7 1 7 5 0 3-3 5-7 5l-8 0z m35 10l0-10 15 0 0-6-15 0 0-10 18 0 0-6-25 0 0 37 25 0 0-5z m57-26c-4-4-9-6-15-6-10 0-20 8-20 19 0 10 9 19 20 19 6 0 11-3 14-6l-5-4c-3 2-5 4-9 4-7 0-13-6-13-13 0-7 5-13 13-13 3 0 7 2 9 4z m31-6l0 16-20 0 0-16-6 0 0 38 6 0 0-16 20 0 0 16 6 0 0-38z m52 19c0-10-9-19-20-19-11 0-20 8-20 19 0 10 9 19 20 19 10 0 20-8 20-19m-33 0c0-7 6-13 13-13 7 0 13 6 13 13 0 6-6 13-13 13-7 0-13-6-13-13"/>
<glyph glyph-name="glyphicon-remove-circle" unicode="&#88;" d="M437 437c-100 100-262 100-362 0-100-100-100-262 0-362 100-100 262-100 362 0 100 100 100 262 0 362z m-329-330c-82 82-82 215 0 297 82 82 215 82 297 0 82-82 82-215 0-297-82-82-215-82-297 0z m239 211l-33 33-60-60-59 59-33-33 59-59-60-60 33-33 60 61 60-61 32 33-60 60z"/>
<glyph glyph-name="bolsa" unicode="&#77;" d="M401 361l-40 0 0 55c0 51-42 96-96 96l-33 0c-54 0-96-42-96-96l0-55-37 0c-30 0-54-24-54-54l-30-241c0-30 24-54 54-54l362 0c30 0 54 24 54 54l-30 241c-3 30-27 54-54 54z m-220 55c0 27 21 51 51 51l36 0c27 0 51-21 51-51l0-55-138 0z m256-350c0-3-3-9-9-9l-362 0c-3 0-9 3-9 9l30 241c0 3 3 9 9 9l40 0 0-63c0-12 9-21 24-21 15 0 21 9 21 21l0 63 135 0 0-63c0-12 9-24 24-24 15 0 24 9 24 24l0 63 40 0c3 0 9-3 9-9z"/>
<glyph glyph-name="switch" unicode="&#82;" d="M389 455c-10 7-23 4-31-6-7-10-4-23 6-31 56-38 89-99 89-166 0-112-90-201-200-201-111 0-202 91-202 201 0 67 34 128 89 166 11 8 14 21 6 31-7 10-20 13-30 6-68-45-109-121-109-203 0-135 111-245 246-245 135 0 244 110 244 245 0 82-39 158-108 203z m-134-157c11 0 21 11 21 22l0 169c0 11-10 22-21 22-12 0-22-11-22-22l0-169c0-11 10-22 22-22z"/>
<glyph glyph-name="salir" unicode="&#85;" d="M154 512l0-42 316 0 0-428-316 0 0-42 358 0 0 512z m-72-278l343 0 0 44-343 0 76 76-31 29-127-127 127-127 31 29z"/>
<glyph glyph-name="ico-coste" unicode="&#87;" d="M481 420l-378 72c-1 0-2 0-3 0-19 0-33-15-33-34l0-74-34 0c-18 0-33-15-33-33l0-297c0-19 15-34 33-34l446 0c18 0 33 15 33 34l0 333c0 17-14 32-31 33z m-379 35l373-71c0 0 1 0 1 0l-374 0z m-66-399l0 292 440 0 0-292z m89 146c0-17-13-30-30-30-17 0-31 13-31 30 0 17 14 31 31 31 17 0 30-14 30-31z"/>
<glyph glyph-name="cog" unicode="&#90;" d="M329 256c0 20-7 37-21 52-15 14-32 21-52 21-20 0-37-7-52-21-14-15-21-32-21-52 0-20 7-37 21-52 15-14 32-21 52-21 20 0 37 7 52 21 14 15 21 32 21 52z m146 31l0-63c0-3 0-5-2-7-1-2-3-3-6-4l-52-8c-4-10-8-19-12-26 7-9 17-22 31-39 2-2 3-5 3-7 0-3-1-5-3-7-5-7-14-17-28-31-14-13-23-20-27-20-2 0-5 1-7 3l-40 31c-8-5-17-8-26-11-3-26-6-44-8-53-1-6-5-8-10-8l-64 0c-2 0-5 0-7 2-2 2-3 4-3 6l-8 53c-9 3-18 6-26 10l-40-30c-2-2-4-3-7-3-3 0-5 1-7 3-24 22-40 38-47 48-2 2-2 4-2 7 0 2 0 4 2 6 3 4 8 11 14 19 7 9 12 16 16 21-5 9-9 19-12 28l-52 8c-3 0-5 1-6 3-2 2-2 4-2 7l0 63c0 3 0 5 2 7 1 2 3 3 5 4l53 8c3 8 7 17 12 26-8 11-18 24-31 39-2 3-3 5-3 7 0 2 1 4 3 7 5 7 14 17 28 30 14 14 23 21 27 21 2 0 5-1 7-3l40-31c8 5 17 8 26 11 3 26 6 44 8 53 1 6 5 8 10 8l64 0c2 0 5 0 7-2 2-2 3-4 3-6l8-53c9-3 18-6 26-10l40 30c2 2 4 3 7 3 3 0 5-1 7-3 25-23 41-39 47-49 2-1 2-3 2-6 0-2 0-4-2-6-3-4-8-11-14-19-7-9-12-16-16-21 5-9 9-18 12-28l52-8c3 0 5-1 6-3 2-2 2-4 2-7z"/>
<glyph glyph-name="information" unicode="&#48;" d="M288 64l0 256-96 0 0-16 32 0 0-240-32 0 0-16 128 0 0 16z m-32 303c26 0 48 22 48 49 0 26-22 48-48 48-27 0-48-22-48-48 0-27 21-49 48-49z"/>
<glyph glyph-name="alert" unicode="&#49;" d="M320 32l-128 0 0 96 128 0z m-16 160l-96 0-16 288 128 0z"/>
<glyph glyph-name="print" unicode="&#51;" d="M512 405l-107 0 0 107-298 0 0-107-107 0 0-298 107 0 0-107 298 0 0 107 107 0z m-363 64l214 0 0-64-214 0z m214-426l-214 0 0 149 214 0z m106 106l-64 0 0 86-298 0 0-86-64 0 0 214 426 0z m-277 22l128 0 0-43-128 0z m0-64l128 0 0-43-128 0z"/>
<glyph glyph-name="gallery" unicode="&#52;" d="M0 277l235 0 0 235-235 0z m43 192l149 0 0-149-149 0z m234 43l0-235 235 0 0 235z m192-192l-149 0 0 149 149 0z m-469-320l235 0 0 235-235 0z m43 192l149 0 0-149-149 0z m234-192l235 0 0 235-235 0z m43 192l149 0 0-149-149 0z"/>
<glyph glyph-name="list" unicode="&#50;" d="M107 427l405 0 0-43-405 0z m0-150l405 0 0-42-405 0z m0-149l405 0 0-43-405 0z m-107 299l43 0 0-43-43 0z m0-150l43 0 0-42-43 0z m0-149l43 0 0-43-43 0z"/>
<glyph glyph-name="social-rss" unicode="&#53;" d="M120 176c-31 0-56-25-56-56 0-31 25-56 56-56 31 0 56 25 56 56 0 31-25 56-56 56z m-56 144l0-80c48 0 94-14 128-48 34-34 48-80 48-128l80 0c0 140-116 256-256 256z m0 128l0-80c171 0 304-133 304-304l80 0c0 212-172 384-384 384z"/>
<glyph glyph-name="descarga-utilidades" unicode="&#53;" d="M77 95l0 391c0 3 2 6 5 6l179 0 0-100c0-15 11-26 26-26l84 0 0-83 21 0 0 94-114 135-196 0c-14 0-26-11-26-26l0-391c0-15 12-26 26-26l161 0 0 21-161 0c-3 0-5 2-5 5z m205 297l0 84 75-89-70 0c-3 0-5 2-5 5z m-167-26l97 0 0-20-97 0z m0-56l97 0 0-21-97 0z m0-57l205 0 0-20-205 0z m0-56l205 0 0-20-205 0z m324-108l-48-49 0 183-21 0 0-183-49 49-15-14 74-74 74 74z"/>
<glyph glyph-name="ico-noticias" unicode="&#54;" d="M484 507l-364 0c-15 0-28-13-28-28l0-34-64 0c-15 0-28-12-28-28l0-389c0-15 13-28 28-28l456 0c15 0 28 13 28 28l0 451c0 15-13 28-28 28z m2-479c0-1-1-2-2-2l-456 0c-1 0-2 1-2 2l0 389c0 2 1 3 2 3l64 0 0-297 26 0 0 356c0 1 1 2 2 2l364 0c1 0 2-1 2-2z m-179 402l-138 0 0-138 138 0z m-25-113l-87 0 0 87 87 0z m64 113l82 0 0-26-82 0z m0-56l82 0 0-26-82 0z m0-57l82 0 0-25-82 0z m-177-56l259 0 0-25-259 0z m0-56l259 0 0-26-259 0z m0-57l259 0 0-25-259 0z"/>
<glyph glyph-name="social-rss" unicode="&#55;" d="M120 176c-31 0-56-25-56-56 0-31 25-56 56-56 31 0 56 25 56 56 0 31-25 56-56 56z m-56 144l0-80c48 0 94-14 128-48 34-34 48-80 48-128l80 0c0 140-116 256-256 256z m0 128l0-80c171 0 304-133 304-304l80 0c0 212-172 384-384 384z"/>
<glyph glyph-name="load-a" unicode="&#56;" d="M320 416c0-35-29-64-64-64-35 0-64 29-64 64 0 35 29 64 64 64 35 0 64-29 64-64z m-176-160c0-27-21-48-48-48-27 0-48 21-48 48 0 27 21 48 48 48 27 0 48-21 48-48z m232 112c0-4-4-8-8-8-4 0-8 4-8 8 0 4 4 8 8 8 4 0 8-4 8-8z m-196 36c-20 20-52 20-72 0-20-20-20-52 0-72 20-21 52-21 72 0 20 20 20 52 0 72z m252-148c0-9-7-16-16-16-9 0-16 7-16 16 0 9 7 16 16 16 9 0 16-7 16-16z m-39-113c0-13-11-24-24-24-13 0-24 11-24 24 0 13 11 24 24 24 13 0 24-11 24-24z m-105-47c0-18-14-32-32-32-18 0-32 14-32 32 0 18 14 32 32 32 18 0 32-14 32-32z m-104 48c0-22-18-40-40-40-22 0-40 18-40 40 0 22 18 40 40 40 22 0 40-18 40-40z"/>
<glyph glyph-name="ico-sobre" unicode="&#57;" d="M495 267c-4 2-9 2-13 0l-31-21 0 253c0 7-6 13-13 13l-364 0c-7 0-13-6-13-13l0-253-31 20c-4 3-9 3-13 1-4-2-7-6-7-11l0-243c0-7 6-13 13-13l466 0c7 0 13 6 13 13l0 243c0 5-3 9-7 11z m-408 219l338 0 0-257-169-111-169 111z m389-460l-440 0 0 206 213-140c4-3 10-3 14 0l213 140z m-338 412l128 0 0-128-128 0z m154 0l100 0 0-26-100 0z m0-51l100 0 0-26-100 0z m0-52l100 0 0-25-100 0z m-154-51l254 0 0-25-254 0z"/>
<glyph glyph-name="ico-p-right" unicode="&#89;" d="M148 510l-43-43 212-213-212-212 43-43 256 255z"/>
<glyph glyph-name="ico-p-down" unicode="&#89;" d="M511 364l-43 43-213-212-212 212-43-43 255-256z"/>
<glyph glyph-name="android-arrow-dropdown" unicode="&#33;" d="M128 320l128-128 128 128z"/>
<glyph glyph-name="ed-flecha-bold-der" unicode="&#81;" d="M131 37l28-31 249 250-249 250-6-6-1-1 0 0-23-22 223-221z"/>
<glyph glyph-name="xls" unicode="&#34;" d="M389 512l-300 0 0-512 391 0 0 408z m62-112l-74 0 0 85z m2-373l-337 0 0 458 234 0 0-112 103 0 0-346z m-420 392l265 0 0-123-265 0z m129-181l241 0 0-27-241 0z m0-57l241 0 0-27-241 0z m0-58l241 0 0-27-241 0z m-42 234l21-32-15 0-14 21-14-20-15 0 22 32-20 28 15 0 12-19 13 19 15 0z m69-31l-42 0 0 60 13 0 0-49 29 0z m40 42c0 6-4 9-11 9-6 0-10-2-10-7 0-5 7-5 19-9 11-3 18-7 18-17 0-15-13-20-25-20-17 0-27 8-27 22l14 0c0-9 5-12 13-12 7 0 11 3 11 8 0 5-3 6-16 9-10 3-19 6-19 18 0 11 9 18 23 18 12 0 23-6 23-19z"/>
<glyph glyph-name="pdf" unicode="&#35;" d="M389 512l-300 0 0-512 391 0 0 408z m62-112l-74 0 0 85z m2-373l-337 0 0 458 234 0 0-112 103 0 0-346z m-420 392l265 0 0-123-265 0z m129-181l241 0 0-27-241 0z m0-57l241 0 0-27-241 0z m0-58l241 0 0-27-241 0z m-50 262c14 0 23-6 23-20 0-13-9-19-22-19l-13 0 0-22-13 0 0 61z m-13-28l12 0c6 0 11 2 11 8 0 7-5 9-11 9l-12 0z m44 28l25 0c18 0 29-11 29-30 0-19-11-30-29-30l-25 0z m23-49c12 0 17 7 17 19 0 12-5 19-17 19l-10 0 0-38z m83 38l-29 0 0-14 25 0 0-11-25 0 0-25-13 0 0 61 42 0z"/>
<glyph glyph-name="help" unicode="&#36;" d="M345 435c-27 21-58 28-98 28-29 0-55-6-75-20-30-20-44-54-44-108l77 0c0 14-2 30 7 43 8 13 20 24 40 24 20 0 31-6 41-18 8-11 11-23 11-36 0-12-5-22-12-32-4-5-9-10-15-15 0 0-42-25-56-48-11-18-15-40-16-66 0-2 0-5 7-5 7 0 56 0 62 0 6 0 7 4 7 6 0 9 2 24 3 29 4 11 10 20 20 28l21 14c18 15 33 26 40 36 11 15 19 34 19 57 0 36-13 64-39 83z m-103-293c-26 1-47-17-48-46-1-28 19-46 45-47 27-1 48 17 49 45 1 28-19 47-46 48z"/>
<glyph glyph-name="wrench" unicode="&#38;" d="M462 397l-57-57-55 10-10 55 57 57c-13 13-31 19-44 18-14-1-43-8-65-32-21-23-44-65-24-113 2-5 5-13-3-21-8-8-215-203-215-203-19-16-18-47 0-65 18-18 49-19 66 0 0 0 193 206 202 215 9 9 16 6 21 3 36-18 87-2 113 24 26 26 31 52 32 65 1 13-4 30-18 44z m-371-328c-6-6-16-6-22 0-7 6-7 16 0 22 6 7 16 7 22 0 7-6 7-16 0-22z"/>
<glyph glyph-name="ios-gear" unicode="&#39;" d="M416 256c0 21 13 39 32 46-5 20-13 40-24 57-6-3-13-4-20-4-12 0-25 5-35 14-14 15-18 37-10 55-17 11-36 19-57 24-7-19-25-32-46-32-21 0-39 13-46 32-21-5-40-13-57-24 8-18 4-40-10-55-10-9-23-14-35-14-7 0-14 1-20 4-11-17-19-37-24-57 19-7 32-25 32-46 0-21-13-39-32-46 5-21 13-40 24-57 6 3 13 4 20 4 12 0 25-5 35-14 14-15 18-37 10-55 17-11 36-19 57-24 7 18 25 32 46 32 21 0 39-14 46-32 21 5 40 13 57 24-8 18-4 40 10 55 10 9 23 14 35 14 7 0 14-1 20-4 11 17 19 36 24 57-19 7-32 25-32 46z m-159-80c-44 0-80 36-80 80 0 44 36 80 80 80 44 0 80-36 80-80 0-44-36-80-80-80z"/>
<glyph glyph-name="ios-gear-outline" unicode="&#40;" d="M257 352c-26 0-50-10-68-28-18-18-28-42-28-68 0-26 10-50 28-68 18-18 42-28 68-28 26 0 50 10 68 28 18 18 28 42 28 68 0 26-10 50-28 68-18 18-42 28-68 28z m0-176c-44 0-80 36-80 80 0 44 36 80 80 80 44 0 80-36 80-80 0-44-36-80-80-80z m-55 253c4-6 10-12 17-17 11-8 24-12 37-12 13 0 26 4 37 12 7 5 13 11 17 17 11-3 21-7 30-12-1-8-1-16 0-24 2-13 9-25 18-35 12-12 29-19 46-19 4 0 9 0 13 1 5-10 9-20 12-30-6-4-12-10-17-17-8-11-12-24-12-37 0-14 4-26 12-37 5-7 11-13 17-17-3-11-7-21-12-30-4 1-9 1-13 1-17 0-34-7-46-19-9-10-16-22-18-35-1-8-1-16 0-24-9-5-20-9-30-12-4 6-10 12-17 17-11 8-24 12-37 12-13 0-26-4-37-12-7-5-13-11-17-17-10 3-21 7-30 12 1 8 1 16 0 24-2 13-9 25-18 35-12 12-29 19-46 19-4 0-9 0-13-1-5 9-9 19-12 30 6 4 12 10 17 17 8 11 12 23 12 37 0 13-4 26-12 37-5 7-11 13-17 17 3 10 7 20 12 30 4-1 9-1 13-1 17 0 34 7 46 19 9 10 16 22 18 35 1 8 1 16 0 24 9 5 19 9 30 12m100 19c-7-19-25-32-46-32-21 0-39 13-46 32-21-5-40-13-57-24 8-18 4-40-10-55-10-9-23-14-35-14-7 0-14 1-20 4-11-17-19-37-24-57 19-7 32-25 32-46 0-21-13-39-32-46 5-21 13-40 24-57 6 3 13 4 20 4 12 0 25-5 35-14 14-15 18-37 10-55 17-11 36-19 57-24 7 18 25 32 46 32 21 0 39-14 46-32 21 5 40 13 57 24-8 18-4 40 10 55 10 9 23 14 35 14 7 0 14-1 20-4 11 17 19 36 24 57-19 7-32 25-32 46 0 21 13 39 32 46-5 20-13 40-24 57-6-3-13-4-20-4-12 0-25 5-35 14-14 15-18 37-10 55-17 11-36 19-57 24z"/>
<glyph glyph-name="android-document" unicode="&#43;" d="M288 464l-152 0c-22 0-40-18-40-40l0-336c0-22 18-40 40-40l240 0c22 0 40 18 40 40l0 248z m-16-144l0 112 112-112z"/>
<glyph glyph-name="android-home" unicode="&#44;" d="M208 64l0 128 96 0 0-128 98 0 0 192 62 0-208 192-208-192 62 0 0-192z"/>
<glyph glyph-name="ios-folder-outline" unicode="&#37;" d="M457 416l-242 0c-3 0-4 1-6 2l-23 23 0 0c-5 5-9 7-17 7l-112 0c-14 0-25-10-25-23l0-336c0-13 12-25 25-25l400 0c13 0 23 11 23 25l0 304c0 13-10 23-23 23z m-400 16l112 0c3 0 4 0 6-2l23-23c4-5 10-7 17-7l242 0c4 0 7-3 7-7l0-42c-3 1-5 1-8 1l-400 0c-3 0-5 0-8-1l0 74c0 4 5 7 9 7z m407-343c0-4-3-9-7-9l-400 0c-4 0-9 5-9 9l0 239c0 4 4 8 8 8l400 0c4 0 8-4 8-8z"/>
<glyph glyph-name="ios-folder" unicode="&#41;" d="M472 336l-432 0c-4 0-8-4-8-8l0-239c0-13 12-25 25-25l400 0c13 0 23 11 23 25l0 239c0 4-4 8-8 8z m-15 80l-242 0c-3 0-4 1-6 2l-23 23 0 0c-5 5-9 7-17 7l-112 0c-14 0-25-10-25-23l0-74c3 1 5 1 8 1l432 0c3 0 5 0 8-1l0 42c0 13-10 23-23 23z"/>
<glyph glyph-name="android-call" unicode="&#42;" d="M427 181c-27 0-53 5-76 12-8 2-16 1-21-5l-47-47c-61 31-110 80-141 141l47 47c5 5 7 13 5 21-8 24-13 50-13 77 0 11-9 21-21 21l-75 0c-11 0-21-10-21-21 0-201 162-363 363-363 11 0 21 10 21 21l0 75c0 12-10 21-21 21z"/>
<glyph glyph-name="chatbox" unicode="&#45;" d="M124 112l153 0c14 0 14 0 21-5 7-5 86-59 86-59l0 64 4 0c42 0 76 32 76 71l0 209c0 40-34 72-76 72l-264 0c-42 0-76-32-76-72l0-209c0-39 34-71 76-71z"/>
<glyph glyph-name="chevron-up" unicode="&#46;" d="M256 298l174-167c5-4 12-4 16 0l31 30c4 4 4 11 0 16l-213 204c-2 2-5 3-8 3-3 0-6-1-8-3l-213-204c-4-5-4-12 0-16l31-30c4-4 12-4 16 0z"/>
</font>
</defs>
</svg>
